<?xml version="1.0" encoding="iso-8859-1"?>
<!-- Generator: Adobe Illustrator 19.0.0, SVG Export Plug-In . SVG Version: 6.00 Build 0)  -->
<svg version="1.1" id="Layer_1" xmlns="http://www.w3.org/2000/svg" xmlns:xlink="http://www.w3.org/1999/xlink" x="0px" y="0px"
	 viewBox="0 0 512 512" style="enable-background:new 0 0 512 512;" xml:space="preserve">
<g transform="translate(1 1)">
	<g>
		<path style="fill:#FFDD09;" d="M442.733,7.533h-23.04c8.533,0,14.507,7.68,14.507,17.067v460.8
			c0,9.387-6.827,17.067-14.507,17.067h23.04c9.387,0,17.067-7.68,17.067-17.067V24.6C459.8,15.213,452.12,7.533,442.733,7.533"/>
		<path style="fill:#FFDD09;" d="M84.333,24.6v460.8c0,9.387,6.827,17.067,14.507,17.067h294.4c8.533,0,14.507-7.68,14.507-17.067
			V24.6c0-9.387-6.827-17.067-14.507-17.067H98.84C91.16,7.533,84.333,15.213,84.333,24.6"/>
	</g>
	<path style="fill:#FFFFFF;" d="M84.333,485.4V24.6c0-9.387,6.827-17.067,14.507-17.067H75.8c-9.387,0-17.067,7.68-17.067,17.067
		v460.8c0,9.387,7.68,17.067,17.067,17.067h23.04C91.16,502.467,84.333,494.787,84.333,485.4"/>
	<path style="fill:#FD9808;" d="M417.133,7.533h-23.04c8.533,0,14.507,7.68,14.507,17.067v460.8c0,9.387-6.827,17.067-14.507,17.067
		h23.04c9.387,0,17.067-7.68,17.067-17.067V24.6C434.2,15.213,426.52,7.533,417.133,7.533"/>
	<g>
		<path style="fill:#54C9FD;" d="M383,178.2v-40.96c0-23.893-18.773-42.667-42.667-42.667c-23.893,0-42.667,18.773-42.667,42.667
			v40.96H383z"/>
		<path style="fill:#54C9FD;" d="M340.333,94.573c-14.507,0-25.6-11.093-25.6-25.6s11.093-25.6,25.6-25.6
			c14.507,0,25.6,11.093,25.6,25.6S354.84,94.573,340.333,94.573"/>
	</g>
	<path d="M340.333,103.107c-18.773,0-34.133-15.36-34.133-34.133s15.36-34.133,34.133-34.133s34.133,15.36,34.133,34.133
		S359.107,103.107,340.333,103.107z M340.333,51.907c-9.387,0-17.067,7.68-17.067,17.067s7.68,17.067,17.067,17.067
		S357.4,78.36,357.4,68.973S349.72,51.907,340.333,51.907z"/>
	<path d="M383,186.733h-85.333c-5.12,0-8.533-3.413-8.533-8.533v-40.96c0-28.16,23.04-51.2,51.2-51.2c28.16,0,51.2,23.04,51.2,51.2
		v40.96C391.533,183.32,388.12,186.733,383,186.733z M306.2,169.667h68.267V137.24c0-18.773-15.36-34.133-34.133-34.133
		S306.2,118.467,306.2,137.24V169.667z"/>
	<path d="M417.133,511H75.8c-14.507,0-25.6-11.093-25.6-25.6V24.6C50.2,10.093,61.293-1,75.8-1h341.333
		c14.507,0,25.6,11.093,25.6,25.6v34.133c0,5.12-3.413,8.533-8.533,8.533c-5.12,0-8.533-3.413-8.533-8.533V24.6
		c0-5.12-3.413-8.533-8.533-8.533H75.8c-5.12,0-8.533,3.413-8.533,8.533v460.8c0,5.12,3.413,8.533,8.533,8.533h341.333
		c5.12,0,8.533-3.413,8.533-8.533V127c0-5.12,3.413-8.533,8.533-8.533c5.12,0,8.533,3.413,8.533,8.533v358.4
		C442.733,499.907,431.64,511,417.133,511z"/>
	<path d="M442.733,92.867c0-5.12-3.413-8.533-8.533-8.533c-5.12,0-8.533,3.413-8.533,8.533s3.413,8.533,8.533,8.533
		C439.32,101.4,442.733,97.987,442.733,92.867"/>
	<path d="M383,237.933H109.933c-5.12,0-8.533-3.413-8.533-8.533c0-5.12,3.413-8.533,8.533-8.533H383c5.12,0,8.533,3.413,8.533,8.533
		C391.533,234.52,388.12,237.933,383,237.933z"/>
	<path d="M383,357.4H109.933c-5.12,0-8.533-3.413-8.533-8.533c0-5.12,3.413-8.533,8.533-8.533H383c5.12,0,8.533,3.413,8.533,8.533
		C391.533,353.987,388.12,357.4,383,357.4z"/>
	<path d="M297.667,280.6H255c-5.12,0-8.533-3.413-8.533-8.533s3.413-8.533,8.533-8.533h42.667c5.12,0,8.533,3.413,8.533,8.533
		S302.787,280.6,297.667,280.6z"/>
	<path d="M340.333,280.6H331.8c-5.12,0-8.533-3.413-8.533-8.533s3.413-8.533,8.533-8.533h8.533c5.12,0,8.533,3.413,8.533,8.533
		S345.453,280.6,340.333,280.6z"/>
	<path d="M280.6,314.733H255c-5.12,0-8.533-3.413-8.533-8.533s3.413-8.533,8.533-8.533h25.6c5.12,0,8.533,3.413,8.533,8.533
		S285.72,314.733,280.6,314.733z"/>
	<path d="M374.467,314.733h-59.733c-5.12,0-8.533-3.413-8.533-8.533s3.413-8.533,8.533-8.533h59.733c5.12,0,8.533,3.413,8.533,8.533
		S379.587,314.733,374.467,314.733z"/>
	<path d="M152.6,280.6h-42.667c-5.12,0-8.533-3.413-8.533-8.533s3.413-8.533,8.533-8.533H152.6c5.12,0,8.533,3.413,8.533,8.533
		S157.72,280.6,152.6,280.6z"/>
	<path d="M195.267,280.6h-8.533c-5.12,0-8.533-3.413-8.533-8.533s3.413-8.533,8.533-8.533h8.533c5.12,0,8.533,3.413,8.533,8.533
		S200.387,280.6,195.267,280.6z"/>
	<path d="M280.6,400.067H255c-5.12,0-8.533-3.413-8.533-8.533S249.88,383,255,383h25.6c5.12,0,8.533,3.413,8.533,8.533
		S285.72,400.067,280.6,400.067z"/>
	<path d="M374.467,400.067h-59.733c-5.12,0-8.533-3.413-8.533-8.533s3.413-8.533,8.533-8.533h59.733c5.12,0,8.533,3.413,8.533,8.533
		S379.587,400.067,374.467,400.067z"/>
	<path d="M314.733,434.2h-25.6c-5.12,0-8.533-3.413-8.533-8.533s3.413-8.533,8.533-8.533h25.6c5.12,0,8.533,3.413,8.533,8.533
		S319.853,434.2,314.733,434.2z"/>
	<path d="M374.467,434.2h-25.6c-5.12,0-8.533-3.413-8.533-8.533s3.413-8.533,8.533-8.533h25.6c5.12,0,8.533,3.413,8.533,8.533
		S379.587,434.2,374.467,434.2z"/>
	<path d="M152.6,400.067h-42.667c-5.12,0-8.533-3.413-8.533-8.533s3.413-8.533,8.533-8.533H152.6c5.12,0,8.533,3.413,8.533,8.533
		S157.72,400.067,152.6,400.067z"/>
	<path d="M195.267,400.067h-8.533c-5.12,0-8.533-3.413-8.533-8.533s3.413-8.533,8.533-8.533h8.533c5.12,0,8.533,3.413,8.533,8.533
		S200.387,400.067,195.267,400.067z"/>
	<path d="M169.667,84.333h-59.733c-5.12,0-8.533-3.413-8.533-8.533s3.413-8.533,8.533-8.533h59.733c5.12,0,8.533,3.413,8.533,8.533
		C178.2,80.92,174.787,84.333,169.667,84.333z"/>
	<path d="M169.667,152.6h-59.733c-5.12,0-8.533-3.413-8.533-8.533c0-5.12,3.413-8.533,8.533-8.533h59.733
		c5.12,0,8.533,3.413,8.533,8.533C178.2,149.187,174.787,152.6,169.667,152.6z"/>
	<path d="M212.333,84.333H203.8c-5.12,0-8.533-3.413-8.533-8.533s3.413-8.533,8.533-8.533h8.533c5.12,0,8.533,3.413,8.533,8.533
		C220.867,80.92,217.453,84.333,212.333,84.333z"/>
	<path d="M246.467,118.467H203.8c-5.12,0-8.533-3.413-8.533-8.533s3.413-8.533,8.533-8.533h42.667c5.12,0,8.533,3.413,8.533,8.533
		S251.587,118.467,246.467,118.467z"/>
	<path d="M212.333,152.6H203.8c-5.12,0-8.533-3.413-8.533-8.533c0-5.12,3.413-8.533,8.533-8.533h8.533
		c5.12,0,8.533,3.413,8.533,8.533C220.867,149.187,217.453,152.6,212.333,152.6z"/>
	<path d="M246.467,186.733H203.8c-5.12,0-8.533-3.413-8.533-8.533c0-5.12,3.413-8.533,8.533-8.533h42.667
		c5.12,0,8.533,3.413,8.533,8.533C255,183.32,251.587,186.733,246.467,186.733z"/>
</g>
<g>
</g>
<g>
</g>
<g>
</g>
<g>
</g>
<g>
</g>
<g>
</g>
<g>
</g>
<g>
</g>
<g>
</g>
<g>
</g>
<g>
</g>
<g>
</g>
<g>
</g>
<g>
</g>
<g>
</g>
</svg>
